<svg width="16" height="16" viewBox="0 0 16 16" fill="none" xmlns="http://www.w3.org/2000/svg">
<g clip-path="url(#clip0_0_117)">
<path fill-rule="evenodd" clip-rule="evenodd" d="M7.98641 6.34556C6.67361 6.34556 5.61041 7.41036 5.61041 8.72156C5.61041 10.0344 6.67441 11.0984 7.98641 11.0984C9.29841 11.0984 10.3632 10.0344 10.3632 8.72156C10.3632 7.41036 9.29921 6.34556 7.98641 6.34556ZM14.3232 3.96956H12.4224C12.1608 3.96956 11.8792 3.76716 11.7968 3.51916L11.3056 2.04476C11.2224 1.79676 10.9416 1.59436 10.68 1.59436H5.29361C5.03201 1.59436 4.75041 1.79676 4.66801 2.04476L4.17681 3.51916C4.09361 3.76716 3.81201 3.96956 3.55121 3.96956H1.65041C0.779206 3.96956 0.0664062 4.68236 0.0664062 5.55356V12.6824C0.0664062 13.5536 0.779206 14.2664 1.65041 14.2664H14.324C15.1952 14.2664 15.908 13.5536 15.908 12.6824V5.55356C15.908 4.68236 15.1944 3.96956 14.3232 3.96956ZM7.98641 12.6824C5.79921 12.6824 4.02641 10.9096 4.02641 8.72156C4.02641 6.53516 5.79921 4.76156 7.98641 4.76156C10.1736 4.76156 11.9472 6.53516 11.9472 8.72156C11.9472 10.9096 10.1736 12.6824 7.98641 12.6824ZM13.7688 6.66156C13.4632 6.66156 13.2152 6.41276 13.2152 6.10716C13.2152 5.80156 13.4632 5.55276 13.7688 5.55276C14.0752 5.55276 14.3232 5.80156 14.3232 6.10716C14.3232 6.41276 14.0752 6.66156 13.7688 6.66156Z" fill="white"/>
</g>
<defs>
<clipPath id="clip0_0_117">
<rect width="16" height="16" fill="white"/>
</clipPath>
</defs>
</svg>
